<?xml version="1.0" encoding="iso-8859-1"?>
<!-- Generator: Adobe Illustrator 19.0.0, SVG Export Plug-In . SVG Version: 6.00 Build 0)  -->
<svg version="1.1" id="Capa_1" xmlns="http://www.w3.org/2000/svg" xmlns:xlink="http://www.w3.org/1999/xlink" x="0px" y="0px"
	 viewBox="0 0 511.999 511.999" style="enable-background:new 0 0 511.999 511.999;" xml:space="preserve">
<g>
	<g>
		<path style="fill:#ffffff;" d="M267.77,291.099l-1.164-1.164l1.164-1.164c2.928-2.928,2.928-7.677,0-10.606c-2.929-2.929-7.678-2.929-10.607,0
			l-1.164,1.164l-1.164-1.164c-2.93-2.929-7.678-2.929-10.607,0c-2.929,2.929-2.929,7.678,0,10.606l1.165,1.164l-1.165,1.164
			c-2.929,2.929-2.929,7.678,0,10.606c1.464,1.464,3.384,2.197,5.303,2.197c1.919,0,3.839-0.732,5.304-2.197l1.164-1.164
			l1.164,1.164c1.465,1.465,3.384,2.197,5.303,2.197s3.839-0.732,5.304-2.197C270.699,298.776,270.699,294.027,267.77,291.099z"/>
	</g>
</g>
<g>
	<g>
		<path style="fill:#ffffff;" d="M171.541,222.005l1.164-1.164c2.929-2.929,2.929-7.678,0-10.606c-2.929-2.928-7.678-2.929-10.606,0l-1.164,1.164
			l-1.164-1.164c-2.929-2.929-7.678-2.929-10.606,0c-2.929,2.929-2.929,7.678,0,10.606l1.165,1.164l-1.165,1.164
			c-2.93,2.929-2.93,7.678-0.001,10.606c1.464,1.464,3.384,2.197,5.303,2.197c1.92,0,3.839-0.732,5.304-2.197l1.164-1.164
			l1.164,1.164c1.465,1.465,3.384,2.197,5.303,2.197c1.919,0,3.839-0.732,5.303-2.197c2.929-2.929,2.929-7.678,0-10.606
			L171.541,222.005z"/>
	</g>
</g>
<g>
	<g>
		<path style="fill:#ffffff;" d="M124.184,291.099l-1.165-1.164l1.165-1.164c2.928-2.928,2.928-7.677-0.001-10.606c-2.929-2.929-7.677-2.929-10.606,0
			l-1.164,1.164l-1.164-1.164c-2.929-2.929-7.678-2.929-10.606,0c-2.929,2.929-2.929,7.678,0,10.606l1.164,1.164l-1.164,1.164
			c-2.929,2.929-2.929,7.678,0,10.606c1.464,1.464,3.384,2.197,5.303,2.197s3.839-0.732,5.303-2.197l1.164-1.164l1.164,1.164
			c1.465,1.465,3.384,2.197,5.304,2.197c1.919,0,3.839-0.732,5.303-2.197C127.112,298.776,127.112,294.027,124.184,291.099z"/>
	</g>
</g>
<g>
	<g>
		<path style="fill:#ffffff;" d="M361.671,222.004l1.165-1.164c2.929-2.929,2.929-7.677,0-10.606c-2.929-2.93-7.677-2.929-10.607,0l-1.164,1.164
			l-1.164-1.164c-2.929-2.929-7.678-2.929-10.607,0c-2.929,2.929-2.929,7.677,0,10.606l1.165,1.164l-1.165,1.164
			c-2.929,2.929-2.929,7.678,0,10.606c1.464,1.465,3.384,2.197,5.303,2.197s3.839-0.732,5.304-2.197l1.164-1.164l1.164,1.164
			c1.465,1.465,3.384,2.197,5.304,2.197c1.919,0,3.839-0.732,5.303-2.197c2.929-2.929,2.929-7.677,0-10.606L361.671,222.004z"/>
	</g>
</g>
<g>
	<g>
		<path style="fill:#ffffff;" d="M411.358,291.099l-1.164-1.164l1.164-1.164c2.928-2.929,2.928-7.677-0.001-10.606c-2.929-2.93-7.677-2.929-10.606,0
			l-1.164,1.164l-1.164-1.164c-2.929-2.929-7.678-2.929-10.607,0c-2.929,2.929-2.929,7.677,0,10.606l1.164,1.164l-1.164,1.164
			c-2.929,2.929-2.929,7.678,0,10.606c1.465,1.465,3.384,2.197,5.304,2.197c1.919,0,3.839-0.732,5.303-2.197l1.164-1.164
			l1.164,1.164c1.465,1.465,3.384,2.197,5.304,2.197c1.919,0,3.839-0.732,5.303-2.197
			C414.288,298.776,414.288,294.028,411.358,291.099z"/>
	</g>
</g>
<g>
	<g>
		<path style="fill:#ffffff;" d="M474.215,333.034c-1.456-14.273-6.077-27.862-13.528-39.907v-88.439C460.687,91.823,368.864,0,255.999,0
			c-32.599,0-63.782,7.474-92.685,22.215c-27.549,14.051-51.997,34.562-70.701,59.314c-2.497,3.305-1.842,8.008,1.463,10.505
			s8.008,1.842,10.505-1.462c17.343-22.953,40.01-41.97,65.549-54.995C196.903,21.923,225.793,15,255.999,15
			c104.594,0,189.688,85.094,189.688,189.688v69.89c-0.908-0.874-1.834-1.727-2.775-2.562c-5.465-4.854-11.529-9.089-17.963-12.556
			c-0.728-4.456-1.759-8.8-3.079-13.01v-41.761c0-11.539-1.205-23.078-3.583-34.33l3.495-9.808c0.884-2.485,0.367-5.325-1.327-7.346
			c-2.557-3.053-5.854-5.462-9.223-7.543c-0.098-0.06-0.188-0.121-0.288-0.181C386.449,81.568,324.53,38.818,255.999,38.818
			c-68.532,0-130.449,42.75-154.946,106.663c-0.099,0.06-0.19,0.12-0.288,0.181c-0.748,0.461-1.485,0.939-2.212,1.432
			c-2.564,1.746-5.027,3.741-7.025,6.128c-1.688,2.018-2.194,4.852-1.312,7.329l3.495,9.808c-2.377,11.252-3.582,22.79-3.582,34.329
			v41.727c-1.326,4.222-2.36,8.581-3.089,13.05c-3.008,1.621-5.928,3.416-8.758,5.368c-4.247,2.917-8.257,6.173-11.971,9.745v-69.89
			c0-31.116,7.744-62.004,22.394-89.327c1.957-3.65,0.584-8.196-3.066-10.154c-3.649-1.958-8.196-0.584-10.153,3.066
			c-15.814,29.494-24.174,62.834-24.174,96.415v88.439c-7.451,12.045-12.072,25.634-13.528,39.907
			c-12.207,1.375-21.727,11.756-21.727,24.323c0,11.023,7.323,20.364,17.359,23.423c0.638,7.077,2.365,19.321,7.046,33.179
			c7.86,23.273,21.076,42.086,38.605,55.168c-5.111,4.49-8.347,11.068-8.347,18.39c0,13.5,10.982,24.482,24.482,24.482h321.593
			c13.5,0,24.483-10.983,24.483-24.482c0-7.322-3.235-13.899-8.347-18.39c17.529-13.082,30.745-31.895,38.605-55.168
			c4.681-13.859,6.408-26.103,7.046-33.179c10.036-3.058,17.359-12.4,17.359-23.423C495.942,344.79,486.423,334.409,474.215,333.034
			z M446.901,299.453c0.05,0.078,0.111,0.145,0.164,0.22c6.458,9.987,10.592,21.288,12.064,33.202H350.046
			c-0.036-0.343-0.087-0.684-0.126-1.026c-0.647-5.603-1.789-11.152-3.427-16.549c-3.646-12.062-9.679-23.292-17.865-33.082
			c0.197-0.168,0.39-0.343,0.588-0.509c17.18-14.387,40.592-20.926,62.748-17.636C414.198,267.374,434.608,280.556,446.901,299.453z
			 M180.343,195.276c12.479,0,24.901,3.02,36.024,8.661c0.034,0.017,0.067,0.035,0.101,0.053
			c12.363,6.45,23.138,16.022,30.727,27.745c0.054,0.084,0.106,0.169,0.16,0.253c-2.665,5.233-4.816,10.72-6.466,16.355
			c-0.11,0.378-0.239,0.751-0.345,1.13c-0.324,0.054-0.645,0.121-0.968,0.178c-16.884,2.948-32.609,10.415-45.671,21.815
			c-0.044-0.039-0.091-0.075-0.136-0.114c-7.451-6.479-15.909-11.808-24.998-15.673c-19.66-8.359-42.034-9.704-62.591-3.939
			c-0.349,0.098-0.702,0.184-1.05,0.285v-3.187c3.744-10.868,9.762-20.617,17.46-28.727c0.096-0.09,0.195-0.175,0.287-0.271
			C137.812,204.27,158.757,195.276,180.343,195.276z M134.841,171.876c8.126-3.017,17.739-5.948,26.54-8.053
			c8.895-1.64,18.87-2.854,27.523-3.388l1.525,20.378c-0.004-0.043-0.856-0.08-0.929-0.087c-3.494-0.346-7.009-0.475-10.52-0.423
			c-13.112,0.195-26.17,3.052-38.094,8.535L134.841,171.876z M295.057,120.38c-10.986-2.144-25.879-3.68-38.868-4.007
			c-0.126-0.003-0.252-0.003-0.379,0c-12.991,0.329-27.884,1.864-38.87,4.007c-3.897,0.76-6.527,4.427-5.997,8.362l8.051,59.81
			c-3.206-1.444-6.494-2.717-9.856-3.794l-9.279-68.934c4.412-2.042,13.167-4.805,30.152-6.81
			c12.898-1.522,24.481-1.87,25.987-1.909c1.506,0.04,13.089,0.387,25.987,1.909c16.985,2.004,25.74,4.768,30.152,6.81
			l-6.578,48.874l-2.701,20.059c-3.361,1.077-6.65,2.35-9.855,3.794l8.051-59.809C301.585,124.807,298.955,121.141,295.057,120.38z
			 M285.222,133.915l-8.622,64.059c-0.074,0.053-0.145,0.11-0.219,0.164c-1.505,1.08-2.996,2.201-4.432,3.373
			c-5.947,4.853-11.339,10.494-15.952,16.631c-4.457-5.934-9.679-11.649-15.53-16.243c-1.647-1.362-3.333-2.677-5.068-3.924
			l-8.624-64.06c9.042-1.354,19.653-2.29,29.225-2.541C265.57,131.624,276.18,132.561,285.222,133.915z M199.26,287.03
			c14.739-15.003,35.703-23.823,56.739-23.823c21.115,0,41.942,8.767,56.739,23.823c12.332,12.554,20.06,28.608,22.204,45.845
			H177.056C179.2,315.639,186.926,299.585,199.26,287.03z M406.869,252.025c-5.541-1.62-11.248-2.735-16.991-3.318
			c-23.673-2.402-47.828,4.277-66.79,18.685c-1.658,1.26-3.274,2.576-4.843,3.945c-0.05,0.043-0.102,0.083-0.152,0.127
			c-3.784-3.302-7.831-6.289-12.087-8.954c-14.728-9.223-31.955-14.179-49.325-14.302c0.08-0.225,0.163-0.449,0.245-0.674
			c7.222-19.774,22.507-36.279,41.646-45.027c10.328-4.721,21.723-7.234,33.084-7.234c21.577,0,42.862,9.145,57.753,24.835
			c7.697,8.11,13.716,17.859,17.461,28.727L406.869,252.025z M321.569,180.814l1.525-20.378c8.653,0.533,18.629,1.748,27.523,3.388
			c8.801,2.105,18.414,5.036,26.54,8.053l-6.045,16.962c-8.268-3.802-17.082-6.372-26.225-7.64c-0.023-0.003-0.045-0.007-0.068-0.01
			c-7.315-1.034-14.769-1.176-22.121-0.48C322.322,180.745,321.944,180.774,321.569,180.814z M406.869,217.533
			c-1.206-1.579-2.444-3.132-3.744-4.629l3.713-10.42C406.85,203.218,406.869,217.533,406.869,217.533z M405.988,160.186
			l-14.703,41.258c-0.042-0.034-0.084-0.064-0.125-0.098c-0.664-0.545-6.854-4.856-6.786-5.035l9.345-26.224
			c1.333-3.74-0.48-7.871-4.135-9.422c-9.88-4.192-23.55-8.59-35.675-11.478c-0.123-0.029-0.246-0.056-0.371-0.079
			c-9.736-1.805-20.748-3.129-30.25-3.683l1.102-8.184c14.786,0.914,29.347,3.534,31.04,3.845c1.433,0.343,12.189,2.96,23.938,6.933
			c10.959,3.705,17.96,6.938,22.436,9.492C403.223,158.32,404.656,159.207,405.988,160.186z M255.999,53.818
			c56.852,0,108.694,32.351,134.282,82.15c-1.987-0.733-4.055-1.465-6.225-2.198c-13.223-4.463-24.871-7.21-25.361-7.325
			c-0.106-0.025-0.213-0.048-0.32-0.068c-0.741-0.14-15.839-2.964-31.979-4.038l1.266-9.407c0.354-2.633-0.711-5.257-2.8-6.898
			c-7.137-5.606-20.627-9.508-41.24-11.932c-14.457-1.699-26.936-1.987-27.46-1.999c-0.109-0.003-0.218-0.003-0.327,0
			c-0.524,0.011-13.003,0.299-27.46,1.999c-20.613,2.423-34.104,6.326-41.24,11.932c-2.089,1.641-3.154,4.265-2.8,6.898l1.266,9.407
			c-16.14,1.074-31.238,3.898-31.978,4.038c-0.107,0.02-0.214,0.043-0.32,0.068c-0.489,0.115-12.138,2.862-25.361,7.325
			c-2.17,0.733-4.238,1.465-6.225,2.198C147.304,86.169,199.148,53.818,255.999,53.818z M107.512,159.146
			c0.056-0.037,0.11-0.073,0.166-0.11c0.82-0.538,1.664-1.039,2.516-1.525c13.696-7.818,30.84-13.572,46.374-16.424
			c1.691-0.311,16.252-2.931,31.04-3.845l1.102,8.184c-22.919,1.336-45.129,6.26-66.294,15.24c-3.655,1.551-5.469,5.682-4.136,9.422
			l9.345,26.224c-2.159,1.459-4.262,3.016-6.31,4.662c-0.193,0.155-0.393,0.302-0.602,0.471l-13.783-38.675l-0.92-2.583
			C106.455,159.861,106.957,159.512,107.512,159.146z M105.16,202.483l3.714,10.422c-1.299,1.497-2.54,3.046-3.745,4.625
			C105.13,217.531,105.15,203.218,105.16,202.483z M64.963,299.628c0.042-0.061,0.095-0.113,0.136-0.175
			c8.531-13.049,20.893-23.553,35.212-29.74c26.388-11.401,58.871-7.152,81.234,10.984c0.137,0.111,1.851,1.493,1.83,1.518
			c-8.185,9.787-14.218,21.016-17.865,33.076c-1.732,5.726-2.933,11.634-3.557,17.584H52.869
			C54.343,320.943,58.489,309.626,64.963,299.628z M48.63,381.84l83.87,0.001c0.01,0.097,0.021,0.204,0.032,0.304
			c0.658,6.356,1.732,12.663,3.212,18.88c5.531,23.232,16.772,45.426,34.545,61.674c0.12,0.11,0.236,0.226,0.357,0.335H97.135
			C59.34,441.74,50.627,399.138,48.63,381.84z M147.614,381.841l100.885,0.001v81.193h-52.362c-0.086-0.049-0.175-0.096-0.261-0.145
			c-28.833-16.423-44.344-48.436-48.193-80.465C147.661,382.23,147.637,382.036,147.614,381.841z M416.796,497H95.202
			c-5.229,0-9.482-4.254-9.482-9.482c0-5.229,4.254-9.483,9.482-9.483h0.024H416.77h0.024c5.229,0,9.483,4.254,9.483,9.483
			C426.278,492.746,422.025,497,416.796,497z M263.499,463.035V381.84l100.902,0.001c-0.008,0.068-0.016,0.138-0.024,0.207
			c-0.048,0.437-0.1,0.873-0.153,1.308c-2.56,20.781-9.927,41.384-22.997,57.912c-6.906,8.732-15.425,16.119-25.106,21.623
			c-0.085,0.049-0.173,0.095-0.259,0.144H263.499z M414.864,463.035h-73.426c0.115-0.104,1.993-1.845,2.8-2.63
			c21.086-20.549,32.244-49.576,35.26-78.477c0.003-0.028,0.006-0.06,0.009-0.088h83.88
			C461.433,399.124,452.803,441.669,414.864,463.035z M471.46,366.84H40.562h-0.022c-5.229,0-9.483-4.254-9.483-9.483
			s4.254-9.482,9.483-9.482h430.92c5.229,0,9.482,4.254,9.482,9.482C480.942,362.586,476.689,366.84,471.46,366.84z"/>
	</g>
</g>
<g>
</g>
<g>
</g>
<g>
</g>
<g>
</g>
<g>
</g>
<g>
</g>
<g>
</g>
<g>
</g>
<g>
</g>
<g>
</g>
<g>
</g>
<g>
</g>
<g>
</g>
<g>
</g>
<g>
</g>
</svg>
